<svg xmlns="http://www.w3.org/2000/svg" xmlns:xlink="http://www.w3.org/1999/xlink" width="30.159" height="23.55" viewBox="0 0 30.159 23.55">
  <defs>
    <clipPath id="clip-path">
      <rect id="Rectangle_548" data-name="Rectangle 548" width="30.159" height="23.55" fill="#4bbdc8" stroke="#4bbdc8" stroke-width="1"/>
    </clipPath>
  </defs>
  <g id="Group_387" data-name="Group 387" clip-path="url(#clip-path)">
    <path id="Path_1082" data-name="Path 1082" d="M4.318.5a1.452,1.452,0,0,0-.863.261.952.952,0,0,0-.409.759v8.824a.9.9,0,0,0,.057.306h-1.3A1.227,1.227,0,0,0,.5,11.784V21.843a1.228,1.228,0,0,0,1.306,1.133H4.135a.363.363,0,0,0,.364-.363V19.35H25.585v3.263a.363.363,0,0,0,.364.363h2.328a1.228,1.228,0,0,0,1.307-1.133V11.784a1.227,1.227,0,0,0-1.307-1.133h-1.3a.905.905,0,0,0,.057-.306V1.519A.952.952,0,0,0,26.63.761,1.452,1.452,0,0,0,25.767.5Zm0,.726H25.767a.762.762,0,0,1,.433.125c.091.068.113.117.113.17v8.824a.223.223,0,0,1-.113.181.745.745,0,0,1-.306.125H24.427V7.3a1.082,1.082,0,0,0-1.16-1H16.86a1.082,1.082,0,0,0-1.159,1v3.353H14.385V7.3a1.083,1.083,0,0,0-1.159-1H6.817a1.083,1.083,0,0,0-1.16,1v3.353H4.192a.733.733,0,0,1-.306-.125.222.222,0,0,1-.114-.181V1.52c0-.053.021-.1.114-.17A.755.755,0,0,1,4.318,1.226Zm2.5,5.8h6.409c.285,0,.432.16.432.273v3.353H6.386V7.3C6.386,7.185,6.531,7.025,6.817,7.025Zm10.043,0h6.408c.285,0,.432.16.432.273v3.353h-7.27V7.3C16.429,7.185,16.575,7.025,16.86,7.025ZM1.807,11.375H28.278c.365,0,.579.216.579.408V21.843c0,.192-.214.408-.579.408H26.312V18.988a.363.363,0,0,0-.363-.363H4.135a.363.363,0,0,0-.363.363v3.263H1.807c-.365,0-.58-.216-.58-.408V11.784C1.227,11.591,1.442,11.375,1.807,11.375Z" transform="translate(0.037 0.037)" fill="#4bbdc8" stroke="#4bbdc8" stroke-width="1"/>
    <path id="Path_1083" data-name="Path 1083" d="M4.318.5a1.452,1.452,0,0,0-.863.261.952.952,0,0,0-.409.759v8.824a.9.9,0,0,0,.057.306h-1.3A1.227,1.227,0,0,0,.5,11.784V21.843a1.228,1.228,0,0,0,1.306,1.133H4.135a.363.363,0,0,0,.364-.363V19.35H25.585v3.263a.363.363,0,0,0,.364.363h2.328a1.228,1.228,0,0,0,1.307-1.133V11.784a1.227,1.227,0,0,0-1.307-1.133h-1.3a.905.905,0,0,0,.057-.306V1.519A.952.952,0,0,0,26.63.761,1.452,1.452,0,0,0,25.767.5Zm0,.726H25.767a.762.762,0,0,1,.433.125c.091.068.113.117.113.17v8.824a.223.223,0,0,1-.113.181.745.745,0,0,1-.306.125H24.427V7.3a1.082,1.082,0,0,0-1.16-1H16.86a1.082,1.082,0,0,0-1.159,1v3.353H14.385V7.3a1.083,1.083,0,0,0-1.159-1H6.817a1.083,1.083,0,0,0-1.16,1v3.353H4.192a.733.733,0,0,1-.306-.125.222.222,0,0,1-.114-.181V1.52c0-.053.021-.1.114-.17A.755.755,0,0,1,4.318,1.226Zm2.5,5.8h6.409c.285,0,.432.16.432.273v3.353H6.386V7.3C6.386,7.185,6.531,7.025,6.817,7.025Zm10.043,0h6.408c.285,0,.432.16.432.273v3.353h-7.27V7.3C16.429,7.185,16.575,7.025,16.86,7.025ZM1.807,11.375H28.278c.365,0,.579.216.579.408V21.843c0,.192-.214.408-.579.408H26.312V18.988a.363.363,0,0,0-.363-.363H4.135a.363.363,0,0,0-.363.363v3.263H1.807c-.365,0-.58-.216-.58-.408V11.784C1.227,11.591,1.442,11.375,1.807,11.375Z" transform="translate(0.037 0.037)" fill="#4bbdc8" stroke="#4bbdc8" stroke-width="1"/>
  </g>
</svg>
