<svg xmlns="http://www.w3.org/2000/svg" width="23px" height="24px" viewBox="196.88 0 24.12 23.12">
  <g id="Icon_feather-shopping-cart" data-name="Icon feather-shopping-cart" transform="translate(197.879 1)">
    <path id="Path_1174" data-name="Path 1174" d="M12,31.006A1.006,1.006,0,1,0,13.006,30,1.006,1.006,0,0,0,12,31.006Z" transform="translate(1.072 -10.895)" fill="none" stroke="#4bbdc8" stroke-linecap="round" stroke-linejoin="round" stroke-width="2"/>
    <path id="Path_1175" data-name="Path 1175" d="M28.5,31.006A1.006,1.006,0,1,0,29.506,30,1.006,1.006,0,0,0,28.5,31.006Z" transform="translate(-26.489 -10.895)" fill="none" stroke="#4bbdc8" stroke-linecap="round" stroke-linejoin="round" stroke-width="2"/>
    <path id="Path_1176" data-name="Path 1176" d="M23.621,1.5H19.6L16.9,14.964a2.011,2.011,0,0,1-2.011,1.619H5.12a2.011,2.011,0,0,1-2.011-1.619L1.5,6.528H18.594" transform="translate(-1.5 -1.5)" fill="none" stroke="#4bbdc8" stroke-linecap="round" stroke-linejoin="round" stroke-width="2"/>
  </g>
</svg>